<svg xmlns="http://www.w3.org/2000/svg" width="800" height="1100" viewBox="0 0 800 1100">
  <rect width="800" height="1100" fill="#f5e6cc"/>
  <!-- Atomic starburst -->
  <circle cx="400" cy="350" r="30" fill="#e8963e"/>
  <line x1="400" y1="250" x2="400" y2="200" stroke="#e8963e" stroke-width="3"/>
  <line x1="400" y1="450" x2="400" y2="500" stroke="#e8963e" stroke-width="3"/>
  <line x1="300" y1="350" x2="250" y2="350" stroke="#e8963e" stroke-width="3"/>
  <line x1="500" y1="350" x2="550" y2="350" stroke="#e8963e" stroke-width="3"/>
  <line x1="330" y1="280" x2="295" y2="245" stroke="#e8963e" stroke-width="2"/>
  <line x1="470" y1="280" x2="505" y2="245" stroke="#e8963e" stroke-width="2"/>
  <line x1="330" y1="420" x2="295" y2="455" stroke="#e8963e" stroke-width="2"/>
  <line x1="470" y1="420" x2="505" y2="455" stroke="#e8963e" stroke-width="2"/>
  <circle cx="400" cy="200" r="6" fill="#e8963e"/>
  <circle cx="400" cy="500" r="6" fill="#e8963e"/>
  <circle cx="250" cy="350" r="6" fill="#e8963e"/>
  <circle cx="550" cy="350" r="6" fill="#e8963e"/>
  <!-- Organic shapes -->
  <ellipse cx="250" cy="700" rx="120" ry="80" fill="#2d5f5d" opacity="0.7"/>
  <ellipse cx="550" cy="750" rx="140" ry="70" fill="#c84b31" opacity="0.6"/>
  <ellipse cx="400" cy="850" rx="100" ry="60" fill="#4a6741" opacity="0.5"/>
  <!-- Boomerang shape -->
  <path d="M150,150 Q300,100 350,200 Q300,180 200,220 Z" fill="#c84b31" opacity="0.7"/>
  <path d="M550,120 Q600,180 650,150 Q620,200 560,180 Z" fill="#2d5f5d" opacity="0.6"/>
  <!-- Horizontal lines -->
  <line x1="100" y1="580" x2="700" y2="580" stroke="#2d5f5d" stroke-width="2" opacity="0.3"/>
  <line x1="150" y1="600" x2="650" y2="600" stroke="#c84b31" stroke-width="1.5" opacity="0.2"/>
  <line x1="200" y1="620" x2="600" y2="620" stroke="#4a6741" stroke-width="1" opacity="0.2"/>
  <!-- Diamond pattern -->
  <polygon points="400,950 430,980 400,1010 370,980" fill="#e8963e" opacity="0.5"/>
  <polygon points="350,980 380,1010 350,1040 320,1010" fill="#2d5f5d" opacity="0.4"/>
  <polygon points="450,980 480,1010 450,1040 420,1010" fill="#c84b31" opacity="0.4"/>
</svg>
