<svg xmlns="http://www.w3.org/2000/svg" width="1200" height="640" viewBox="150 60 900 480">
  <!-- Floor — just a sliver visible -->
  <polygon points="0,500 1200,500 1200,800 0,800" fill="#c4a882"/>
  <polygon points="0,500 400,400 800,400 1200,500" fill="#d4b892"/>
  <!-- Back wall — large, warm tone with subtle texture -->
  <rect x="200" y="100" width="800" height="400" fill="#ece4d8"/>
  <!-- Wall texture grain -->
  <rect x="200" y="100" width="800" height="400" fill="url(#wallGrain)" opacity="0.3"/>
  <defs>
    <pattern id="wallGrain" width="4" height="4" patternUnits="userSpaceOnUse">
      <rect width="4" height="4" fill="#e0d8cc"/>
      <rect x="1" y="1" width="2" height="2" fill="#ece4d8" opacity="0.5"/>
    </pattern>
  </defs>
  <!-- Left wall -->
  <polygon points="0,50 200,100 200,500 0,600" fill="#ddd5c9"/>
  <!-- Right wall -->
  <polygon points="1200,50 1000,100 1000,500 1200,600" fill="#d5cdc1"/>
  <!-- Baseboard -->
  <rect x="200" y="480" width="800" height="20" fill="#b8a88c" rx="2"/>
  <!-- Crown molding -->
  <rect x="200" y="100" width="800" height="6" fill="#d8d0c4" rx="1"/>
  <rect x="200" y="106" width="800" height="2" fill="#c8c0b4"/>
  <!-- Sofa — larger, closer -->
  <rect x="320" y="415" width="560" height="85" rx="16" fill="#6b7b8d"/>
  <rect x="330" y="370" width="540" height="55" rx="14" fill="#7b8b9d"/>
  <!-- Sofa arms -->
  <rect x="320" y="400" width="65" height="100" rx="12" fill="#5b6b7d"/>
  <rect x="815" y="400" width="65" height="100" rx="12" fill="#5b6b7d"/>
  <!-- Sofa legs -->
  <rect x="345" y="498" width="8" height="12" rx="2" fill="#444"/>
  <rect x="847" y="498" width="8" height="12" rx="2" fill="#444"/>
  <!-- Cushions — more detail -->
  <rect x="395" y="385" width="80" height="42" rx="10" fill="#8fa4b8"/>
  <rect x="500" y="380" width="75" height="48" rx="10" fill="#a0b4c4"/>
  <rect x="600" y="382" width="78" height="45" rx="10" fill="#95aabb"/>
  <rect x="700" y="385" width="75" height="42" rx="10" fill="#8fa4b8"/>
  <!-- Throw blanket on sofa -->
  <path d="M720,395 Q740,375 760,400 Q770,420 750,430 Q730,425 720,395Z" fill="#c4a882" opacity="0.6"/>
  <!-- Side table -->
  <rect x="920" y="435" width="80" height="65" rx="5" fill="#8b7355"/>
  <rect x="928" y="425" width="64" height="15" rx="3" fill="#9b8365"/>
  <!-- Plant — lusher -->
  <circle cx="960" cy="400" r="28" fill="#5a8a5a"/>
  <circle cx="942" cy="388" r="22" fill="#4a7a4a"/>
  <circle cx="978" cy="385" r="24" fill="#6a9a6a"/>
  <circle cx="955" cy="375" r="16" fill="#5a9a5a"/>
  <rect x="955" y="420" width="12" height="18" rx="3" fill="#c4a070"/>
  <!-- Floor lamp — left side -->
  <rect x="240" y="320" width="8" height="180" fill="#333"/>
  <ellipse cx="244" cy="315" rx="38" ry="22" fill="#f5e6c8"/>
  <circle cx="244" cy="315" r="10" fill="#fff8e0" opacity="0.6"/>
  <!-- Lamp glow on wall -->
  <ellipse cx="300" cy="280" rx="80" ry="60" fill="#fff8e0" opacity="0.04"/>
  <!-- Window light effect on wall -->
  <rect x="400" y="130" width="180" height="250" fill="#fff" opacity="0.04" rx="3"/>
  <!-- Subtle shadow under sofa -->
  <ellipse cx="600" cy="505" rx="280" ry="8" fill="#000" opacity="0.08"/>
</svg>
