<svg xmlns="http://www.w3.org/2000/svg" width="1200" height="640" viewBox="150 60 900 480">
  <!-- Floor — just a sliver visible -->
  <polygon points="0,500 1200,500 1200,800 0,800" fill="#c4a882"/>
  <polygon points="0,500 400,400 800,400 1200,500" fill="#d4b892"/>
  <!-- Back wall — large, warm tone with subtle texture -->
  <rect x="200" y="100" width="800" height="400" fill="#ece4d8"/>
  <!-- Wall texture grain -->
  <rect x="200" y="100" width="800" height="400" fill="url(#wallGrain)" opacity="0.3"/>
  <defs>
    <pattern id="wallGrain" width="4" height="4" patternUnits="userSpaceOnUse">
      <rect width="4" height="4" fill="#e0d8cc"/>
      <rect x="1" y="1" width="2" height="2" fill="#ece4d8" opacity="0.5"/>
    </pattern>
  </defs>
  <!-- Left wall -->
  <polygon points="0,50 200,100 200,500 0,600" fill="#ddd5c9"/>
  <!-- Right wall -->
  <polygon points="1200,50 1000,100 1000,500 1200,600" fill="#d5cdc1"/>
  <!-- Baseboard -->
  <rect x="200" y="480" width="800" height="20" fill="#b8a88c" rx="2"/>
  <!-- Crown molding -->
  <rect x="200" y="100" width="800" height="6" fill="#d8d0c4" rx="1"/>
  <rect x="200" y="106" width="800" height="2" fill="#c8c0b4"/>
  <!-- Small chair — right side, against wall -->
  <!-- Chair seat -->
  <rect x="760" y="430" width="80" height="12" rx="4" fill="#8b7355"/>
  <!-- Chair back -->
  <rect x="770" y="380" width="60" height="55" rx="8" fill="#a08060"/>
  <rect x="775" y="385" width="50" height="45" rx="6" fill="#b8a080"/>
  <!-- Chair legs -->
  <rect x="768" y="442" width="6" height="56" rx="2" fill="#6b5535"/>
  <rect x="826" y="442" width="6" height="56" rx="2" fill="#6b5535"/>
  <!-- Small side table — next to chair -->
  <rect x="860" y="445" width="55" height="55" rx="4" fill="#8b7355"/>
  <rect x="865" y="438" width="45" height="10" rx="3" fill="#9b8365"/>
  <!-- Table legs -->
  <rect x="865" y="498" width="5" height="8" rx="1" fill="#6b5535"/>
  <rect x="905" y="498" width="5" height="8" rx="1" fill="#6b5535"/>
  <!-- Small vase on table -->
  <rect x="880" y="418" width="14" height="22" rx="5" fill="#c4a882"/>
  <ellipse cx="887" cy="418" rx="8" ry="3" fill="#b89872"/>
  <!-- Plant — compact, on table -->
  <circle cx="887" cy="408" r="12" fill="#5a8a5a"/>
  <circle cx="880" cy="402" r="9" fill="#4a7a4a"/>
  <circle cx="894" cy="404" r="10" fill="#6a9a6a"/>
  <!-- Floor lamp — left side -->
  <rect x="240" y="320" width="8" height="180" fill="#333"/>
  <ellipse cx="244" cy="315" rx="38" ry="22" fill="#f5e6c8"/>
  <circle cx="244" cy="315" r="10" fill="#fff8e0" opacity="0.6"/>
  <!-- Lamp glow on wall -->
  <ellipse cx="300" cy="280" rx="80" ry="60" fill="#fff8e0" opacity="0.04"/>
  <!-- Window light effect on wall -->
  <rect x="400" y="130" width="180" height="250" fill="#fff" opacity="0.04" rx="3"/>
  <!-- Subtle shadow under furniture -->
  <ellipse cx="810" cy="505" rx="100" ry="5" fill="#000" opacity="0.06"/>
</svg>
